<?xml version="1.0" standalone="no"?>
<!DOCTYPE svg PUBLIC "-//W3C//DTD SVG 20010904//EN"
 "http://www.w3.org/TR/2001/REC-SVG-20010904/DTD/svg10.dtd">
<svg version="1.0" xmlns="http://www.w3.org/2000/svg"
 width="1920.000000pt" height="1562.000000pt" viewBox="0 0 1920.000000 1562.000000"
 preserveAspectRatio="xMidYMid meet">

<g transform="translate(0.000000,1562.000000) scale(0.100000,-0.100000)"
fill="#000000" stroke="none">
<path d="M5815 12614 c-9 -694 -1 -1712 15 -1909 46 -577 208 -1014 525 -1410
144 -180 311 -332 557 -506 115 -82 231 -193 302 -288 25 -35 83 -125 128
-199 106 -177 204 -305 320 -420 245 -243 482 -367 1191 -626 115 -42 225 -85
245 -95 70 -36 67 4 64 -716 -2 -357 -7 -730 -12 -828 -21 -403 -91 -697 -235
-992 -131 -269 -310 -495 -540 -680 -186 -149 -321 -224 -604 -336 -242 -96
-262 -105 -263 -115 -1 -5 50 -40 113 -77 227 -135 351 -145 609 -50 460 169
803 456 1048 876 156 266 273 595 322 902 27 172 39 314 50 631 11 312 14
1451 4 1591 l-7 90 -96 18 c-369 66 -549 116 -762 209 -119 53 -278 144 -399
232 -102 72 -289 251 -372 353 -226 280 -374 631 -423 1006 -14 105 -15 236
-9 1055 4 514 3 1370 -1 1903 l-7 967 -878 0 -878 0 -7 -586z m1225 -1654 c0
-1783 -2 -1990 -15 -1982 -41 22 -165 136 -232 212 -210 238 -347 530 -417
888 -50 255 -49 227 -53 1585 l-4 1287 361 0 360 0 0 -1990z"/>
<path d="M12077 11273 c-3 -1441 -7 -1951 -16 -2018 -31 -231 -103 -472 -198
-660 -188 -375 -481 -657 -898 -861 -174 -85 -325 -136 -671 -230 -137 -36
-256 -69 -265 -71 -33 -9 -32 -1669 1 -2038 30 -338 95 -607 212 -880 178
-417 426 -724 764 -945 179 -118 493 -247 649 -268 132 -18 241 7 352 81 84
56 163 134 142 141 -8 2 -74 23 -148 46 -351 109 -614 260 -849 485 -362 347
-552 773 -627 1400 -17 143 -44 1528 -31 1597 14 78 76 122 217 158 654 165
1161 479 1502 932 75 100 133 192 207 327 35 63 79 130 99 150 20 20 95 75
166 123 635 425 999 987 1114 1718 28 179 39 345 51 770 10 355 6 1864 -6
1938 l-5 32 -879 0 -879 0 -4 -1927z m1247 1635 c11 -79 28 -1659 23 -2103 -5
-460 -11 -546 -57 -746 -95 -416 -310 -791 -590 -1024 -43 -36 -81 -65 -84
-65 -3 0 -6 896 -6 1990 l0 1990 354 0 354 0 6 -42z"/>
<path d="M9570 12390 c-441 -25 -877 -104 -1324 -240 -296 -90 -306 -99 -306
-289 0 -123 0 -123 23 -118 12 3 94 30 182 60 1163 403 2275 396 3444 -22 63
-23 118 -41 123 -41 9 0 11 206 2 272 l-6 44 -157 52 c-457 150 -838 229
-1312 272 -159 14 -506 19 -669 10z"/>
<path d="M8733 11329 c-48 -14 -98 -69 -112 -122 -8 -32 -11 -222 -11 -625 0
-637 1 -646 61 -696 41 -35 89 -46 194 -46 116 0 168 23 205 90 24 44 25 52
28 268 l4 223 -79 -3 -78 -3 -5 -198 c-5 -194 -6 -199 -29 -218 -33 -27 -86
-25 -116 6 l-25 24 0 559 c0 536 1 561 19 583 15 19 29 24 65 24 78 0 81 -7
84 -220 l3 -185 80 0 79 0 0 188 c0 105 -5 204 -11 227 -14 51 -73 110 -124
124 -48 13 -187 13 -232 0z"/>
<path d="M9365 11321 c-57 -26 -82 -58 -100 -126 -22 -86 -23 -1146 0 -1221
16 -56 52 -96 107 -118 48 -20 215 -22 261 -2 44 18 94 77 107 126 7 27 10
231 8 632 -3 530 -5 596 -20 623 -42 78 -103 105 -230 105 -69 0 -103 -5 -133
-19z m178 -132 c14 -6 30 -22 36 -36 8 -16 11 -189 11 -564 0 -463 -2 -544
-15 -569 -17 -34 -50 -45 -100 -36 -67 13 -66 0 -63 617 l3 551 28 24 c31 26
62 30 100 13z"/>
<path d="M9922 10588 l3 -733 78 -3 77 -3 0 279 0 279 88 6 c100 6 149 23 185
67 43 50 49 109 45 420 -3 274 -4 287 -26 332 -38 77 -72 88 -280 88 l-172 0
2 -732z m301 560 c15 -18 17 -47 17 -278 0 -307 1 -304 -96 -305 l-59 0 -3
295 c-1 162 0 300 2 306 7 19 118 5 139 -18z"/>
<path d="M10610 11280 c0 -22 -9 -147 -20 -278 -49 -577 -90 -1091 -90 -1121
l0 -32 78 3 77 3 8 90 c4 50 10 114 13 143 l5 52 80 0 c56 0 79 -4 80 -12 0
-7 6 -71 12 -143 l12 -130 85 0 85 0 -2 30 c-2 17 -28 332 -58 700 -30 369
-57 685 -60 703 l-6 32 -149 0 -150 0 0 -40z m195 -645 c14 -176 25 -326 25
-332 0 -9 -21 -13 -71 -13 l-71 0 6 63 c3 34 17 224 31 422 31 438 36 473 47
305 4 -69 19 -269 33 -445z"/>
<path d="M5519 10118 c-526 -713 -843 -1590 -919 -2548 -14 -176 -14 -648 0
-820 102 -1263 615 -2381 1508 -3284 254 -257 472 -441 747 -631 737 -510
1628 -824 2535 -894 175 -14 668 -14 835 -1 686 55 1342 236 1950 539 547 272
991 595 1416 1029 398 406 698 828 944 1327 354 718 531 1483 532 2300 1 1128
-353 2224 -962 2978 -44 55 -72 82 -76 74 -4 -7 -19 -70 -34 -142 -19 -94 -26
-151 -23 -205 3 -72 8 -83 105 -280 499 -1007 657 -2014 482 -3075 -141 -855
-465 -1566 -1017 -2235 -123 -149 -474 -499 -627 -626 -828 -685 -1718 -1048
-2730 -1113 -303 -20 -738 0 -1080 50 -1611 232 -2838 1137 -3596 2652 -275
548 -427 1074 -485 1682 -24 246 -15 659 20 920 77 578 260 1164 534 1712 59
116 97 233 106 323 8 75 -11 196 -43 281 -39 102 -37 103 -122 -13z"/>
<path d="M9390 9590 l0 -111 88 7 c134 10 152 23 152 106 0 80 -17 91 -167
103 l-73 6 0 -111z m174 41 c24 -20 20 -67 -6 -85 -13 -9 -43 -16 -70 -16
l-48 0 0 61 0 61 54 -4 c30 -3 62 -10 70 -17z"/>
<path d="M9740 9590 l0 -100 110 0 c103 0 110 1 110 20 0 18 -7 20 -85 20 -78
0 -85 2 -85 20 0 18 7 20 75 20 68 0 75 2 75 20 0 17 -8 19 -72 22 -60 2 -73
6 -76 21 -3 15 6 17 82 17 79 0 86 2 86 20 0 19 -7 20 -110 20 l-110 0 0 -100z"/>
<path d="M10080 9590 l0 -100 110 0 c103 0 110 1 110 20 0 18 -7 20 -85 20
l-85 0 0 80 c0 79 0 80 -25 80 l-25 0 0 -100z"/>
<path d="M9128 9324 c-5 -4 -8 -286 -8 -626 l0 -618 70 0 70 0 1 318 c0 197 4
309 9 297 5 -11 35 -144 65 -295 31 -151 59 -285 62 -297 5 -21 11 -23 80 -23
l74 0 -6 33 c-4 17 -32 149 -64 292 l-57 260 37 35 c23 22 40 48 44 70 3 19 5
133 3 252 -3 215 -3 217 -28 244 -42 45 -84 57 -220 62 -69 2 -128 1 -132 -4z
m240 -152 c10 -13 12 -61 10 -200 -3 -207 -5 -212 -80 -212 l-38 0 0 220 0
221 48 -7 c26 -3 53 -13 60 -22z"/>
<path d="M10086 9321 c-5 -8 7 -86 104 -691 34 -209 40 -268 40 -398 l0 -153
73 3 72 3 6 180 c5 156 14 230 67 550 34 204 66 394 72 424 17 93 19 91 -55
91 -44 0 -67 -4 -70 -12 -8 -22 -75 -574 -75 -616 0 -23 -4 -43 -8 -46 -5 -3
-26 133 -46 302 -20 169 -39 322 -43 340 l-5 32 -64 0 c-34 0 -65 -4 -68 -9z"/>
<path d="M9650 8700 l0 -620 165 0 165 0 0 65 0 65 -95 0 -95 0 0 250 0 249
68 3 67 3 3 58 3 57 -71 0 -70 0 0 185 0 185 90 0 90 0 0 60 0 60 -160 0 -160
0 0 -620z"/>
</g>
</svg>
