<?xml version="1.0" encoding="UTF-8" standalone="no"?>
<svg
   xmlns:dc="http://purl.org/dc/elements/1.1/"
   xmlns:cc="http://creativecommons.org/ns#"
   xmlns:rdf="http://www.w3.org/1999/02/22-rdf-syntax-ns#"
   xmlns:svg="http://www.w3.org/2000/svg"
   xmlns="http://www.w3.org/2000/svg"
   xmlns:sodipodi="http://sodipodi.sourceforge.net/DTD/sodipodi-0.dtd"
   xmlns:inkscape="http://www.inkscape.org/namespaces/inkscape"
   width="4500"
   height="3000"
   viewBox="0 0 4500 3000"
   version="1.1"
   id="svg44"
   sodipodi:docname="rapid-vienna-1960-1998-3x2.svg"
   inkscape:version="0.92.4 (5da689c313, 2019-01-14)">
  <metadata
     id="metadata50">
    <rdf:RDF>
      <cc:Work
         rdf:about="">
        <dc:format>image/svg+xml</dc:format>
        <dc:type
           rdf:resource="http://purl.org/dc/dcmitype/StillImage" />
        <dc:title>scr-logo</dc:title>
      </cc:Work>
    </rdf:RDF>
  </metadata>
  <defs
     id="defs48" />
  <sodipodi:namedview
     pagecolor="#ffffff"
     bordercolor="#666666"
     borderopacity="1"
     objecttolerance="10"
     gridtolerance="10"
     guidetolerance="10"
     inkscape:pageopacity="0"
     inkscape:pageshadow="2"
     inkscape:window-width="1683"
     inkscape:window-height="797"
     id="namedview46"
     showgrid="true"
     units="px"
     fit-margin-top="68.198485"
     fit-margin-left="14.79492"
     fit-margin-right="14.79492"
     fit-margin-bottom="68.198485"
     inkscape:zoom="0.10085552"
     inkscape:cx="3061.361"
     inkscape:cy="1379.5815"
     inkscape:window-x="0"
     inkscape:window-y="0"
     inkscape:window-maximized="0"
     inkscape:current-layer="svg44">
    <inkscape:grid
       type="xygrid"
       id="grid52"
       originx="-187.52426"
       originy="-120.51774" />
  </sodipodi:namedview>
  <title
     id="title2">scr-logo</title>
  <path
     style="fill:#1d1d1b;fill-rule:evenodd;stroke-width:17"
     inkscape:connector-curvature="0"
     id="path4"
     d="m 3562.485,1049.4385 a 530.4,530.4 0 0 0 -137.02,-233.24002 c -1.53,0 -1.53,3.23 -4.08,1.53 0,0 1.53,-1.53 2.38,-1.53 a 474.13,474.13 0 0 0 -56.95,-49.47 549.1,549.1 0 0 0 -34,-62.56 c -61.03,-109.99 -175.78,-177.48 -282.54,-242.42 -23.29,-20.91 -47.43,-40.97 -72.25,-61.03 -68,-55.93 -151.98,-86.52999 -232.73,-124.1 V 1009.6585 692.94848 c 36.89,26.52 73.78,54.57 114.75,81.09 24.82,63.41 57.8,128.52004 127.67,156.57004 l 17,8.84 a 415.14,415.14 0 0 0 83.13,109.64998 z M 1753.855,258.25848 a 437.92,437.92 0 0 0 -93.84,43.35 111.86,111.86 0 0 1 -52.19,24.14 l 2.38,1.53 h -7.14 a 631.55,631.55 0 0 0 -120.36,51 v 1.53 h -2.38 c -3.91,4.76 -15.98,4.08 -15.98,12.07 h -1.53 v -1.53 a 1892.1,1892.1 0 0 0 -197.54,134.81 714,714 0 0 0 -198.0501,260.61 c -2.38,22.44 -23.97,35.36 -36.89,53.04 A 615.57,615.57 0 0 0 925.10492,1049.6085 H 1407.905 c 6.63,-10.54 17,-21.25 26.18,-31.79 17,-25.66998 37.74,-52.18998 40.97,-87.54998 a 701.08,701.08 0 0 0 111.52,-129.54004 c 56.95,-36.89 109.14,-73.78 164.56,-117.13 h 2.38 V 1050.1185 258.25848 Z M 950.60492,2107.8585 a 37.4,37.4 0 0 1 10.71,27.2 c 36.21,140.42 101.14998,256.02 212.67008,344.42 41.82,21.59 65.11,63.41 95.54,93.84 97.07,109.99 231.88,207.06 394.06,222.36 a 777.92,777.92 0 0 0 238,114.07 349.86,349.86 0 0 0 187,9.69 c 17,-3.23 34,-10.37 49.81,-13.6 a 64.94,64.94 0 0 0 24.82,21.76 c 28.9,12.92 61.71,-6.46 82.62,-24.14 a 141.95,141.95 0 0 0 65.79,28.05 57.97,57.97 0 0 0 51.17,-22.78 332.86,332.86 0 0 0 181.39,12.07 44.88,44.88 0 0 0 17,-2.38 770.78,770.78 0 0 0 264.01,-122.06 c 158.1,-27.37 268.09,-138.89 350.03,-257.72 150.11,-73.78 235.11,-207.06 295.46,-353.26 a 489.6,489.6 0 0 0 68,-76.16 h -436.22 a 284.41,284.41 0 0 0 -77.52,92.31 907.97,907.97 0 0 0 -230.35,226.44 l -26.52,12.92 v 1.53 a 829.43,829.43 0 0 1 -92.31,32.13 c -56.27,10.37 -116.45,26.52 -167.79,39.27 -12.92,4.76 -28.05,8.84 -41.82,13.6 a 289,289 0 0 0 -89.93,45.73 c -10.37,-18.53 -21.76,-37.74 -43.35,-42.5 h 0.85 c -2.38,0 -7.99,-4.76 -11.22,-2.38 a 100.13,100.13 0 0 0 -76.16,27.37 h -4.76 a 86.87,86.87 0 0 0 -72.25,-27.37 77.01,77.01 0 0 0 -46.58,53.04 c 0,0 -2.38,0 -2.38,1.53 a 250.58,250.58 0 0 0 -94.01,-52.19 c -2.38,0 1.7,2.38 -1.53,1.53 h -1.53 1.53 a 77.01,77.01 0 0 0 -26.01,-9.52 c 0,-2.04 -3.91,-1.87 -6.12,-1.87 0,-3.23 -6.29,0 -7.99,-2.38 h 1.53 a 150.62,150.62 0 0 0 -31.28,-7.99 h 1.53 a 74.29,74.29 0 0 0 -17,-4.08 136,136 0 0 0 -24.14,-5.61 h -2.38 c -3.23,-3.23 -4.76,-2.38 -9.69,-2.38 0,-3.06 -4.42,-1.7 -6.8,-0.85 l -5.27,-1.53 h 4.08 a 30.94,30.94 0 0 0 -12.75,-1.53 h 4.25 c 0,-3.23 -7.99,0 -10.37,-2.38 -27.37,-4.76 -53.04,-14.45 -81.09,-20.91 a 888.42,888.42 0 0 1 -102,-45.05 876.86,876.86 0 0 0 -189.38,-195.84 764.66,764.66 0 0 0 -40.12,-29.75 c -15.47,-36.55 -46.92,-64.09 -75.82,-89.93 z" />
  <path
     style="fill:#1d1d1b;fill-rule:evenodd;stroke-width:17"
     inkscape:connector-curvature="0"
     id="path6"
     d="m 1753.855,68.198485 h 990.93 V 1049.4385 h 990.42 v 1058.42 H 764.79492 v -1058.42 H 1753.855 Z" />
  <path
     style="fill:#ffed00;fill-rule:evenodd;stroke-width:17"
     inkscape:connector-curvature="0"
     id="path8"
     d="M 793.69492,1075.2785 H 3703.075 v 1002.83 H 793.69492 Z" />
  <path
     style="fill:#005081;fill-rule:evenodd;stroke-width:17"
     inkscape:connector-curvature="0"
     id="path10"
     d="M 824.46492,1106.7285 H 3672.305 v 940.1 H 824.46492 Z" />
  <path
     style="fill:#ffed00;fill-rule:evenodd;stroke-width:17"
     inkscape:connector-curvature="0"
     id="path12"
     d="m 1752.665,279.16848 v 18.36 c -18.53,-6.46 -32.98,4.76 -51,4.08 a 175.61,175.61 0 0 1 51,-22.44 z m 999.43,22.44 c 87.55,36.04 175.78,76.33 247.18,141.27 6.46,32.98 20.06,66.64 26.52,97.92 -43.35,-47.43 -104.38,-75.48 -154.87,-117.98 -4.08,0 -11.22,0 -11.22,6.46 v 8.84 c 58.65,49.81 110.67,95.54 162.86,146.88 -56.95,-28.9 -117.98,-54.57 -178.16,-80.24 -1.53,-1.53 -6.46,0 -9.69,-3.23 a 367.2,367.2 0 0 1 -70.72,-36.04 l -20.74,-28.05 v -137.36 l 7.31,1.7 z m -997.73,111.69 a 843.03,843.03 0 0 1 -162.18,119 c 52.87,-63.41 89.08,-150.96 147.73,-207.91 5.61,-3.23 9.52,-10.37 14.28,-13.6 v 103.53 z m -37.57,-94.01 a 1050.77,1050.77 0 0 0 -85,119 367.88,367.88 0 0 1 -113.22,131.75 c -27.37,12.75 -54.57,28.05 -81.77,43.35 a 1154.64,1154.64 0 0 1 126.99,-132.77 c 0,-4.76 1.53,-7.31 0,-11.22 a 10.71,10.71 0 0 0 -15.98,0 c -67.15,57.12 -129.88,110.33 -178.84,184.62 a 547.4,547.4 0 0 1 38.59,-172.55 427.38,427.38 0 0 1 25.67,-51 724.71,724.71 0 0 1 283.56,-111.18 z m -321.3,138.89 a 553.52,553.52 0 0 0 -37.74,124.44 c -11.22,81.94001 -18.53,166.94001 -73.1,221 a 2414,2414 0 0 0 -89.08,51 v -4.76 c 39.27,-63.41 77.86,-119 114.75,-182.24 a 11.39,11.39 0 0 0 -7.14,-12.07 73.78,73.78 0 0 0 -32.98,21.76 c -36.21,37.74 -54.57,77.86 -77.86,124.44 a 308.89,308.89 0 0 0 1.7,-71.4 17,17 0 0 0 -4.76,-5.61 c -3.23,0 -0.85,3.23 -4.08,1.53 v -2.38 a 187,187 0 0 0 -32.81,19.21 c -17,12.07 -42.5,26.52 -63.41,39.27 a 635.29,635.29 0 0 1 91.46,-146.03 786.42,786.42 0 0 1 215.05,-178.16 z m 1922.36,257.55 14.45,27.37 a 222.02,222.02 0 0 1 -29.75,-17 c -4.76,0 -8.84,4.08 -11.22,6.46 a 181.9,181.9 0 0 0 3.23,69.02 l -1.53,1.53 c -24.14,-48.11 -47.43,-97.07 -89.93,-133.96 -8.16,-4.08 -17,-16.15 -25.67,-7.14 a 10.88,10.88 0 0 0 0,12.92 c 36.89,61.03 77.86,122.06 114.75,181.39004 v 1.53 c -39.27,-25.67004 -80.24,-44.20004 -117.98,-70.72004 -17,-62.56 -41.82,-125.97 -97.07,-166.94 a 1501.44,1501.44 0 0 1 -51.34,-148.41 h 1.7 c 107.61,65.11 226.27,133.28 289,243.95 z m -400.52,-2.21 a 409.02,409.02 0 0 1 -79.39,-53.72 c -24.82,-30.6 -42.5,-62.56 -70.55,-89.93 -4.76,0 -12.92,-2.38 -14.45,3.23 v 9.69 l 73.1,94.69 a 476.85,476.85 0 0 0 20.06,62.56 h -1.53 a 1182.52,1182.52 0 0 1 -99.45,-73.1 v -187 c 81.09,59.33 119,149.26 171.7,232.73 z m -1270.58,-172.55 -7.99,9.69 c -40.97,64.09 -69.02,143.48 -125.97,193.29 a 1097.69,1097.69 0 0 1 -151.64,102 259.08,259.08 0 0 1 23.29,-44.2 c 40.97,-59.33 85.85,-102 133.96,-154.19 a 11.22,11.22 0 0 0 -5.61,-13.6 l -7.99,1.7 a 1263.44,1263.44 0 0 1 -159.8,127.67 242.76,242.76 0 0 1 130.9,-151.81 1418.65,1418.65 0 0 0 189.38,-102 c -4.76,11.22 -12.92,19.21 -18.53,30.43 z m 1318.69,36.89 c 54.57,29.75 120.36,59.5 150.96,115.6 a 336.09,336.09 0 0 1 30.6,76.33 1531.53,1531.53 0 0 1 -167.79,-133.28 c -5.61,0 -10.37,0 -11.22,5.61 v 8.84 c 59.5,61.03 117.13,117.98001 158.1,195.84001 v 1.7 a 959.82,959.82 0 0 0 -106.76,-85 l -49.81,-22.44 c -68,-65.79 -94.69,-163.03 -160.48,-230.35001 49.81,20.06001 105.06,43.35001 157.25,66.64 z m -1211.25,-47.43 v 125.12 a 1547,1547 0 0 1 -139.74,102 l 1.7,-5.61 c 12.75,-21.59 25.67,-44.88 40.12,-69.02 a 809.2,809.2 0 0 0 94.52,-86.19 c 0,-4.76 -1.7,-5.61 -3.23,-9.69 a 10.88,10.88 0 0 0 -12.92,0 c -26.52,30.6 -64.26,48.11 -92.31,73.95 a 357,357 0 0 1 -75.48,53.72 284.75,284.75 0 0 1 25.67,-40.97 l 158.27,-142.46 h 2.38 z" />
  <path
     style="fill:#ffed00;fill-rule:evenodd;stroke-width:17"
     inkscape:connector-curvature="0"
     id="path14"
     d="m 2859.535,700.59848 a 824.84,824.84 0 0 0 157.25,85 c 47.26,37.74 111.52,75.48004 132.43,133.28004 a 289,289 0 0 0 -58.65,-34 l -51,-20.06 -42.67,-30.09004 a 10.03,10.03 0 0 0 -12.07,4.08 c -4.08,10.37 5.61,14.45 11.22,19.21004 53.04,34 104.38,70.72 156.57,107.61 a 724.37,724.37 0 0 1 -172.55,-61.03 c -55.42,-28.04999 -77.01,-81.09004 -100.3,-134.13004 -4.76,0 0,-4.08 -2.38,-6.46 -7.99,-21.76 -18.53,-46.58 -24.14,-66.64 l 6.46,2.38 z m -1240.15,6.46 a 1024.42,1024.42 0 0 1 -81.77,130.05 809.88,809.88 0 0 1 -81.77,83.47005 c -24.14,14.45 -55.42,12.75 -83.47,18.36 a 1076.44,1076.44 0 0 1 91.46,-63.41 126.31,126.31 0 0 0 36.89,-27.20005 c 4.08,-6.46 -1.53,-12.91999 -6.46,-15.29999 -19.21,7.99 -35.19,23.29004 -53.72,32.98004 -36.21,14.45 -74.63,26.52 -102,52.19 a 221,221 0 0 1 35.36,-56.27 1405.9,1405.9 0 0 0 160.48,-108.29004 733.89,733.89 0 0 0 85,-47.43 z m -442.17,44.88 c -3.23,87.55 -38.59,166.26004 -70.72,239.19004 -8.84,19.20998 -19.21,40.11998 -28.9001,58.64998 l -3.23,1.53 h -66.47 c -2.38,-5.61 2.38,-12.92 4.08,-19.21 l 23.97,-46.57998 c 0,-3.23 -3.23,-6.46 -5.61,-8.84 -15.13,-3.23 -19.21,15.98 -26.52,24.13998 -10.36998,17 -12.06998,34 -21.75998,51 h -37.57 c 18.53,-77.00998 58.64998,-141.26998 101.14998,-202.30002 32.13,-42.5 88.4001,-68 129.2001,-97.07 h 2.38 z m 219.13,0.85 a 578,578 0 0 0 -97.07,198.22004 173.4,173.4 0 0 1 -36.89,63.40998 c -7.14,10.37 -15.3,25.67 -22.44,36.89 h -67.15 v -4.08 c 32.13,-46.58 65.79,-94.68998 93.84,-142.11998 a 12.07,12.07 0 0 0 -7.14,-11.22 h -6.46 c -52.19,38.59 -89.08,101.15 -125.97,156.56998 h -26.18 c 0,-9.69 7.99,-17 11.22,-27.2 18.53,-37.73998 34,-75.47998 49.81,-114.74998 40.12,-45.73 100.3,-68.00004 154.19,-102.00004 28.05,-17 52.19,-34 80.24,-53.72 z m 2147.1,299.37002 a 306,306 0 0 1 -38.59,0 c -12.07,-25.67 -17,-55.41998 -42.5,-74.62998 a 10.88,10.88 0 0 0 -10.37,5.61 v 8.84 a 172.04,172.04 0 0 1 28.05,60.17998 h -49.81 a 549.78,549.78 0 0 0 -88.23,-151.63998 c -15.3,-44.88 -34,-97.92004 -32.13,-146.03004 a 489.77,489.77 0 0 1 233.58,298.52002 z m -243.27,-164.55998 a 442,442 0 0 1 109.14,164.55998 h -48.96 a 845.75,845.75 0 0 0 -55.42,-78.70998 326.06,326.06 0 0 0 -64.26,-73.1 18.19,18.19 0 0 0 -17,-4.08 c -12.75,7.99 2.38,18.53 4.08,26.52 28.9,42.5 57.8,85.84998 85.85,125.96998 h -68 c -15.3,-32.13 -46.58,-52.18998 -55.42,-87.54998 -24.82,-74.63 -49.81,-146.03004 -101.15,-207.06004 v -1.53 c 65.11,53.04 142.8,85 209.44,134.13004 z m -1847.73,57.12 a 286.96,286.96 0 0 1 -73.78,105.90998 h -64.26 c 0,-7.14 7.14,-12.07 9.69,-20.06 2.55,-7.99 11.22,-12.07 4.76,-18.53 a 10.03,10.03 0 0 0 -12.92,-2.38 183.26,183.26 0 0 0 -44.88,40.97 c -2.38,0 -7.14,1.53 -7.99,-1.53 20.91,-40.12 62.56,-83.46998 113.22,-91.45998 23.29,-4.08 52.19,-7.30999 76.33,-13.6 z m 1727.37,49.64 a 286.28,286.28 0 0 1 43.35,55.41998 h -10.37 a 145.69,145.69 0 0 0 -45.05,-40.12 9.01,9.01 0 0 0 -11.22,7.99 c 0,12.92 11.22,20.06 15.98,31.28 h -54.57 a 515.1,515.1 0 0 1 -85,-97.91998 v -2.38 a 1324.47,1324.47 0 0 0 146.03,44.2 z m 130.9,1111.96998 c -1.53,5.61 -8.84,7.99 -13.6,11.22 -29.75,9.69 -63.41,10.54 -92.31,22.44 a 447.78,447.78 0 0 0 -115.6,66.64 c 15.3,-24.14 43.35,-40.97 68,-59.33 a 7.31,7.31 0 0 0 0,-9.69 c -8.84,-10.37 -18.53,1.53 -26.52,3.23 -21.76,9.69 -43.35,21.76 -64.26,32.98 a 162.69,162.69 0 0 1 27.2,-31.28 493,493 0 0 1 46.58,-36.89 h 171.7 z m -2161.55,-0.85 a 197.2,197.2 0 0 1 28.9,39.27 189.38,189.38 0 0 1 18.36,40.97 449.31,449.31 0 0 1 -48.11,-39.27 11.9,11.9 0 0 0 -13.6,6.46 c 0,12.92 13.6,23.29 20.06,35.36 l 8.84,14.45 h -1.53 a 813.45,813.45 0 0 0 -183.77008,-89.93 l -4.76,-7.99 z m 202.13,0.85 a 335.07,335.07 0 0 1 72.25,66.64 c -25.67,-13.6 -53.04,-26.52 -80.24,-39.27 -4.76,-2.38 -8.84,1.53 -12.07,3.91 -4.76,11.22 7.99,15.3 15.3,20.06 a 187,187 0 0 1 53.04,47.43 h -1.53 a 396.61,396.61 0 0 0 -204,-88.4 45.56,45.56 0 0 1 -17,-12.07 h 174.93 z m 2163.25,0 a 176.97,176.97 0 0 1 -28.05,35.36 c -4.08,-3.23 1.53,-7.14 -2.38,-12.07 -3.23,-7.99 -12.92,-4.08 -18.53,-3.23 a 627.64,627.64 0 0 0 -136,72.25 v -3.91 l 23.29,-36.21 a 10.2,10.2 0 0 0 -5.61,-12.07 h -6.46 a 455.43,455.43 0 0 1 -49.81,40.12 255,255 0 0 1 32.98,-64.26 l 17,-17 h 173.4 z m -2352.63,121.21 c 21.59,16.15 44.88,30.43 64.26,46.58 a 375.87,375.87 0 0 0 138.04,208.76 663,663 0 0 1 -131.58,-104.38 c -19.21,-26.52 -40.97,-58.65 -66.64,-75.48 a 10.88,10.88 0 0 0 -12.07,7.99 v 7.31 c 20.91,23.29 40.12,48.11 61.71,70.55 29.75,46.58 60.18,94.69 89.93,139.74 -172.55,-56.27 -283.3901,-224.74 -325.04008,-392.53 a 707.54,707.54 0 0 1 180.54008,91.46 z" />
  <path
     style="fill:#ffed00;fill-rule:evenodd;stroke-width:17"
     inkscape:connector-curvature="0"
     id="path16"
     d="m 1424.395,2254.7385 c 10.37,54.57 22.44,115.6 61.71,157.25 v 1.53 c -58.48,-36.21 -114.75,-93.16 -164.56,-133.28 -5.61,-1.53 -8.84,2.38 -11.22,6.46 v 7.31 a 871.25,871.25 0 0 1 114.75,115.6 717.91,717.91 0 0 1 83.47,128.52 520.37,520.37 0 0 1 -182.75,-114.75 c -58.65,-63.41 -77.01,-137.36 -102,-218.28 a 536.86,536.86 0 0 0 -25.67,-65.79 c 88.4,7.99 166.94,57.8 225.59,115.6 z m 1864.56,-113.9 c -1.53,7.99 -7.99,17 -10.37,24.82 -36.21,100.3 -56.27,217.6 -146.88,286.62 a 535.5,535.5 0 0 1 -151.64,86.7 l 1.53,-5.61 a 787.44,787.44 0 0 1 196.69,-238 11.39,11.39 0 0 0 -6.46,-13.6 l -7.99,1.53 a 1599.02,1599.02 0 0 1 -159.8,130.9 c 40.12,-45.73 48.96,-102 61.88,-159.8 60.18,-56.95 136,-106.76 223.89,-113.22 z" />
  <path
     style="fill:#ffed00;fill-rule:evenodd;stroke-width:17"
     inkscape:connector-curvature="0"
     id="path18"
     d="m 3457.595,2164.1285 c -49.81,129.2 -126.82,259.25 -253.64,334.73 a 274.38,274.38 0 0 1 22.44,-37.74 c 25.67,-38.59 48.11,-79.56 85,-114.75 6.46,-11.22 26.52,-23.29 21.76,-38.59 a 9.69,9.69 0 0 0 -12.07,-2.38 c -30.6,20.91 -46.58,51 -69.02,77.01 a 573.41,573.41 0 0 1 -130.05,102 380.29,380.29 0 0 0 141.78,-211.14 799,799 0 0 1 196.69,-124.44 c 3.23,4.76 -2.38,10.37 -2.38,15.3 z m -1888.7,144.5 c 0,1.53 2.38,1.53 3.23,4.08 a 1191.36,1191.36 0 0 1 137.19,168.64 573.58,573.58 0 0 1 -105.91,-114.75 c -3.23,-2.38 -9.69,-3.23 -12.07,0 -9.69,9.69 3.23,18.53 6.46,27.37 a 981.24,981.24 0 0 0 104.38,110.84 85,85 0 0 1 -27.37,-9.69 820.42,820.42 0 0 1 -111.01,-38.76 c -58.65,-40.12 -106.76,-102 -112.37,-171.02 a 211.82,211.82 0 0 0 -34,-92.31 802.74,802.74 0 0 1 153,115.6 z m 1502.63,-112.37 c -41.65,53.04 -25.67,122.74 -64.26,178.16 a 326.91,326.91 0 0 1 -82.79,83.47 1258,1258 0 0 1 -137.19,47.43 c 40.12,-41.65 87.55,-77.01 114.75,-130.05 1.53,-5.61 -4.76,-7.99 -7.99,-10.37 l -7.31,2.38 a 632.57,632.57 0 0 1 -102,111.52 v -3.23 c 75.48,-114.75 164.56,-210.29 285.77,-281.86 v 2.38 z m -1360.51,333.88 a 537.54,537.54 0 0 1 52.87,25.67 310.76,310.76 0 0 0 129.1999,106.76 c 0,1.53 6.4601,4.08 4.0801,6.46 a 304.81,304.81 0 0 1 -129.3701,-23.29 c -33.9999,-12.75 -63.4099,-31.28 -97.0699,-45.73 a 12.07,12.07 0 0 0 -9.69,7.99 11.39,11.39 0 0 0 7.99,12.07 1219.58,1219.58 0 0 1 143.6499,80.24 c 17,10.37 31.2801,24.82 48.11,36.04 -91.46,-21.59 -183.7699,-51 -256.0199,-106.76 -20.91,-13.6 -27.37,-34 -48.11,-48.11 a 1640.5,1640.5 0 0 0 -94.69,-159.8 c 77.86,53.72 160.48,78.71 249.73,108.29 z m 1317.16,-107.61 a 1426.64,1426.64 0 0 0 -90.78,151.64 c -15.3,18.53 -31.28,34 -48.11,53.04 -74.63,57.8 -166.94,86.7 -258.57,109.14 59.5,-53.04 129.2,-85 196.69,-120.36 a 12.41,12.41 0 0 0 -1.53,-12.92 c -3.23,-4.76 -10.37,-2.38 -14.45,0 -66.64,36.89 -137.19,69.02 -219.13,65.79 -2.38,-4.76 5.61,-7.31 8.84,-9.69 a 317.22,317.22 0 0 0 127.67,-104.38 c 85.85,-47.43 189.38,-61.03 272,-114.75 9.69,-4.76 18.53,-12.92 28.05,-17 z" />
  <path
     style="fill:#ffed00;fill-rule:evenodd;stroke-width:17"
     inkscape:connector-curvature="0"
     id="path20"
     d="m 1518.235,2581.4785 c 40.12,15.3 53.04,53.04 85.85,73.1 83.47,59.5 189.38,85 289,112.37 a 1346.91,1346.91 0 0 1 -194.99,-26.52 c -48.96,-11.22 -102,-23.29 -136,-62.56 a 9.18,9.18 0 0 0 -12.07,4.76 c -2.38,9.69 6.46,18.53 12.92,24.82 62.56,44.2 137.19,57.8 211.8199,73.78 a 423.64,423.64 0 0 1 -309.0599,-99.62 c -73.78,-62.56 -131.58,-146.03 -182.92,-223.89 l -4.08,-10.37 c 69.87,58.65 155.72,97.07 239.19,134.13 z m 1692.01,-133.28 c -85,134.81 -187,278.63 -357,321.13 a 493,493 0 0 1 -141.27,11.22 c 69.87,-13.6 139.74,-28.9 200.6,-64.26 11.22,-8.84 26.52,-20.06 25.67,-34 a 10.37,10.37 0 0 0 -13.6,-4.76 c -35.36,44.2 -93.84,52.19 -146.03,64.94 l -1.53,3.23 -1.53,-2.38 a 1475.09,1475.09 0 0 1 -181.39,24.14 c 30.43,-9.69 62.56,-17 93.84,-25.67 89.93,-29.75 188.7,-60.18 247.18,-137.19 52.19,-38.59 117.3,-56.95 172.55,-88.4 a 668.95,668.95 0 0 0 100.3,-68 h 1.53 z m -1205.47,91.63 a 295.97,295.97 0 0 1 113.22,62.9 v 11.22 h -2.38 c -52.87,-46.58 -117.13,-65.79 -184.62,-79.39 -5.61,0 -5.61,5.61 -7.31,9.69 1.53,16.15 23.29,11.22 34,17 a 940.27,940.27 0 0 1 170,87.55 l 3.23,7.14 a 426.7,426.7 0 0 0 -180.54,7.99 c -62.56,-20.06 -125.97,-55.42 -163.71,-112.37 -22.44,-30.43 -45.73,-60.18 -64.94,-92.31 85,42.5 189.38,48.96 283.39,80.24 z m 767.38,-79.56 c -39.27,52.19 -76.33,119 -136,158.1 a 536.18,536.18 0 0 1 -77.01,39.27 c -23.29,12.07 -48.96,-2.38 -75.48,-3.23 a 451.01,451.01 0 0 0 -114.07,0 l 8.84,-15.3 c 54.57,-30.43 111.69,-69.02 175.78,-83.47 a 12.92,12.92 0 0 0 11.22,-9.69 11.9,11.9 0 0 0 -6.46,-11.22 c -62.56,13.6 -124.44,27.37 -173.4,70.72 h -1.53 l -1.53,-11.22 c 42.5,-40.97 99.45,-51 153,-69.02 81.09,-17 162.18,-29.75 234.43,-65.11 h 1.53 z m -1442.45,99.62 a 744.6,744.6 0 0 0 158.1,163.03 c -92.31,-42.5 -164.56,-117.13 -228.82,-191.08 v -1.53 l 69.87,29.75 z m 818.72,121.89 a 346.8,346.8 0 0 0 42.5,41.82 c -26.52,-1.7 -61.03,-10.37 -89.93,-2.38 a 629,629 0 0 1 -68,-2.38 9.18,9.18 0 0 0 -5.61,12.07 l 3.23,4.76 c 34,14.45 77.01,4.76 114.75,10.37 h 27.37 c 0,4.08 -5.61,7.99 -8.84,9.69 -75.48,23.29 -162.18,11.22 -235.28,-6.46 -41.82,-10.37 -71.4,-43.35 -105.91,-65.79 a 406.81,406.81 0 0 0 89.08,3.23 c 57.8,-4.76 112.37,-23.29 171.7,-17 a 336.43,336.43 0 0 1 64.26,11.22 z m 494.36,4.93 23.29,-3.23 c -31.28,21.76 -56.1,48.11 -93.16,62.56 -72.25,19.21 -160.48,32.98 -236.81,13.6 a 44.03,44.03 0 0 1 -15.3,-12.07 c 34,-2.38 64.94,-4.76 100.3,-4.08 a 150.11,150.11 0 0 0 37.74,-7.99 9.69,9.69 0 0 0 2.38,-12.07 l -5.61,-4.76 a 393.89,393.89 0 0 1 -97.07,0 c -17,0 -36.89,3.23 -52.87,4.76 15.98,-14.45 31.28,-27.37 47.26,-44.2 a 383.01,383.01 0 0 1 173.4,1.53 374,374 0 0 0 116.45,6.46 z m -500.99,96.22 c 0,10.37 -12.07,12.07 -19.21,18.53 -24.14,19.21 -56.95,21.76 -83.47,34 a 161.84,161.84 0 0 1 -87.55,7.99 15.3,15.3 0 0 0 -14.45,0 9.69,9.69 0 0 0 -1.53,12.07 66.47,66.47 0 0 0 39.27,8.84 c 39.27,0 85,5.61 117.98,-15.98 l 26.52,-15.3 a 102,102 0 0 0 4.76,44.2 l 3.23,9.69 a 311.27,311.27 0 0 1 -111.35,21.76 c -4.76,5.61 -8.84,-2.38 -15.3,0 -31.28,1.53 -57.8,-8.84 -85.85,-12.07 a 646,646 0 0 0 -69.87,-23.29 h 1.53 a 783.7,783.7 0 0 1 -138.89,-71.4 c 112.37,-1.53 227.12,5.61 336.26,-7.99 l 7.14,-5.61 a 417.69,417.69 0 0 0 90.78,-5.44 z m 297.16,4.93 7.99,6.46 c 108.29,12.07 221,6.46 334.73,7.31 a 765,765 0 0 1 -173.4,83.47 c -69.87,24.14 -162.18,36.89 -233.58,6.46 a 127.33,127.33 0 0 0 9.69,-47.26 c 9.69,1.53 17,10.37 27.37,12.92 36.21,15.98 77.86,8.84 117.98,7.99 9.69,-2.38 22.44,0 27.37,-11.22 0,-5.61 -3.23,-10.37 -7.99,-11.22 h -9.69 l -41.82,2.38 c -39.27,-4.76 -72.25,-20.91 -109.14,-32.98 l -20.06,-12.92 -9.69,-15.3 h 1.53 a 507.28,507.28 0 0 0 78.71,3.23 z M 1754.365,503.22848 c -43.35,38.59 -85.85,77.01 -130.9,116.45 a 634.44,634.44 0 0 1 128.52,-178.16 l 2.38,-1.36 z" />
  <path
     style="fill:#ffed00;fill-rule:evenodd;stroke-width:17"
     d="m 1514.495,1612.3085 a 153,153 0 0 1 -82.79,93.67 l 133.96,204 -204,-20.4 c -38.76,-63.24 -86.36,-142.8 -139.06,-191.42 a 90.27,90.27 0 0 0 -26.01,-18.7 v 181.56 l -167.4501,-14.62 v -631.55 c 123.4201,9.86 317.2201,51.85 431.4601,170 48.62,47.77 81.6,146.71 52.87,227.63 z"
     id="path55"
     inkscape:connector-curvature="0" />
  <path
     style="fill:#ffed00;fill-rule:evenodd;stroke-width:17"
     d="m 3344.715,1268.7385 a 321.47,321.47 0 0 1 83.98,34 291.04,291.04 0 0 1 56.95,47.6 293.76,293.76 0 0 1 42.84,70.38 328.61,328.61 0 0 1 13.94,45.39 411.06,411.06 0 0 1 4.25,141.61 255,255 0 0 1 -43.01,106.25 360.91,360.91 0 0 1 -103.87,99.96 418.71,418.71 0 0 1 -131.58,51 l -53.72,7.31 -75.48,11.22 c -28.9,4.76 -60.18,8.84 -91.46,12.07 v -610.47 c 70.38,-8.84 187,-24.82 211.31,-25.33 a 502.01,502.01 0 0 1 86.02,9.01 z"
     id="path53"
     inkscape:connector-curvature="0" />
  <path
     style="fill:#ffed00;fill-rule:evenodd;stroke-width:17"
     d="m 2935.015,1907.9385 -178.5,22.78 -0.51,-615.23 179.01,-17.68 z"
     id="path51"
     inkscape:connector-curvature="0" />
  <path
     style="fill:#ffed00;fill-rule:evenodd;stroke-width:17"
     d="m 1789.5549,1313.9585 a 766.19,766.19 0 0 1 117.1301,23.29 c 4.08,0 7.14,3.23 12.07,4.08 64.26,23.29 131.07,56.1 170,117.13 a 233.92,233.92 0 0 1 41.99,126.14 v 385.22 l -175.95,-19.21 v -121.21 l -145.1801,-27.03 c -1.3599,43.69 0,87.72 -0.8499,131.41 l -190.23,-17 v -614.89 a 1658.01,1658.01 0 0 1 169.9999,12.07 z"
     id="path49"
     inkscape:connector-curvature="0" />
  <path
     style="fill:#ffed00;fill-rule:evenodd;stroke-width:17"
     d="m 2676.955,1452.5085 a 235.62,235.62 0 0 1 5.1,176.97 204,204 0 0 1 -32.64,52.36 248.88,248.88 0 0 1 -88.91,60.35 591.43,591.43 0 0 1 -153,36.72 v 182.92 l -168.64,14.45 v -601.29 a 820.76,820.76 0 0 1 186.15,-27.37 403.24,403.24 0 0 1 143.14,17 172.21,172.21 0 0 1 109.31,88.4 z"
     id="path24"
     inkscape:connector-curvature="0" />
  <path
     style="fill:#e30613;fill-rule:evenodd;stroke-width:17"
     inkscape:connector-curvature="0"
     id="path26"
     d="m 1232.635,1269.7585 c 113.9,36.89 251.94,109.14 273.7,242.42 a 172.38,172.38 0 0 1 -47.26,157.25 147.39,147.39 0 0 1 -51,29.41 c 7.31,12.92 15.98,23.63 23.97,37.23 11.73,17 100.13,146.54 106.25,158.27 l -166.26,-18.19 c -39.44,-65.96 -83.3,-141.95 -138.55,-192.27 -12.92,-10.37 -32.64,-26.35 -51,-25.5 v 187 l -137.0201,-11.73 v -602.99 a 1119.79,1119.79 0 0 1 187.0001,38.25 z m 2218.16,67.49 a 214.03,214.03 0 0 1 16.15,15.3 c 64.94,71.4 77.01,157.42 65.79,247.18 a 234.6,234.6 0 0 1 -38.42,102 355.81,355.81 0 0 1 -243.27,151.47 c -62.73,8.33 -125.29,17 -187,26.52 h -2.38 v -579.87 c 62.56,-10.54 129.03,-17 194.82,-24.48 a 326.57,326.57 0 0 1 115.43,16.15 255,255 0 0 1 80.75,46.07 z m -528.7,558.45 -152.49,19.89 v -586.33 l 152.66,-16.15 z m -821.1,-381.82 a 148.92,148.92 0 0 1 15.13,62.73 l 0.85,376.38 c -49.64,-4.76 -98.43,-8.84 -147.73,-15.98 v -117.98 l -171.53,-32.3 -1.7,132.77 -161.16,-17 v -584.63 c 158.7799,5.27 394.06,17 466.48,196.01 z m 567.8,-36.21 c 20.06,69.87 18.53,153 -46.58,207.91 -70.21,58.48 -192.95,77.18 -229.33,77.86 v 185.47 h -1.19 l -139.74,11.22 v -574.77 a 822.63,822.63 0 0 1 246.84,-20.91 c 69.19,8.84 146.88,41.82 170,113.22 z" />
  <path
     style="fill:#ffed00;fill-rule:evenodd;stroke-width:17"
     inkscape:connector-curvature="0"
     id="path28"
     d="m 3396.565,1601.7685 c -22.95,83.81 -98.94,112.37 -166.26,115.26 h -22.78 v -295.63 c 56.1,-23.29 136,-23.8 170,30.77 29.41,44.03 30.6,92.14 18.36,150.28 z m -853.23,-87.04 c 9.69,23.46 13.94,58.48 -2.89,80.24 -28.9,37.23 -78.2,43.35 -127.16,47.26 h -19.21 v -146.88 c 9.86,-3.74 24.31,-7.65 34,-10.37 38.93,-10.37 92.31,-11.22 114.75,29.75 z m -586.84,167.62 c -54.23,-6.8 -109.31,-14.28 -163.03,-23.63 v -175.44 h 7.48 a 214.37,214.37 0 0 1 90.95,17 107.95,107.95 0 0 1 58.48,54.4 184.11,184.11 0 0 1 11.22,52.87 360.06,360.06 0 0 1 -4.93,74.8 z m -585.82,-193.46 a 102,102 0 0 1 -3.23,88.23 62.9,62.9 0 0 1 -45.73,26.52 c -53.72,2.38 -94.69,-24.82 -137.36,-45.73 v -173.4 a 704.14,704.14 0 0 1 75.65,17 c 44.2,15.98 91.46,42.5 110.84,87.55 z" />
  <path
     style="fill:#005081;fill-rule:evenodd;stroke-width:17"
     inkscape:connector-curvature="0"
     id="path30"
     d="m 1355.715,1491.9485 a 87.38,87.38 0 0 1 -3.4,74.12 51.85,51.85 0 0 1 -37.74,21.93 c -44.37,2.04 -78.2,-23.97 -113.39,-41.14 v -143.31 a 314.33,314.33 0 0 1 63.24,15.3 c 28.22,13.6 75.99,38.08 90.95,73.27 z m 587.35,173.74 -133.96,-19.72 v -145.86 h 4.7599 c 48.7901,1.7 102.0001,19.72 119.0001,55.25 17,35.53 15.47,68 10.37,110.33 z m 1425.96,-201.96 a 194.82,194.82 0 0 1 13.26,133.28 c -17,61.71 -78.03,99.11 -144.33,103.7 h -16.15 v -270.98 c 51,-18.36 116.28,-14.96 146.54,34 z m -837.42,58.31 a 69.7,69.7 0 0 1 -2.72,65.62 c -26.18,29.41 -64.94,37.4 -105.74,40.8 h -16.15 v -122.23 a 252.28,252.28 0 0 1 28.9,-8.5 c 32.47,-8.67 77.01,-9.35 95.71,24.82 z" />
  <path
     style="fill:#ffed00;fill-rule:evenodd;stroke-width:17"
     inkscape:connector-curvature="0"
     id="path32"
     d="M 1778.1649,97.438485 H 2720.985 V 1099.4185 l -470.9,146.54 -471.9201,-146.54 z" />
  <path
     style="fill:#ffffff;fill-rule:evenodd;stroke-width:17"
     inkscape:connector-curvature="0"
     id="path34"
     d="m 1821.515,138.91849 h 856.12 v 927.86001 l -427.89,136.68 -428.23,-136.68 z" />
  <path
     style="fill:#1d1d1b;fill-rule:evenodd;stroke-width:17"
     inkscape:connector-curvature="0"
     id="path36"
     d="m 1754.195,68.368485 h 990.59 V 1121.0085 l -496.06,153.85 -494.53,-154.02 z m 23.7999,28.9 H 2720.985 V 1100.2685 l -470.9,146.54 -471.9201,-146.54 V 97.268485 Z" />
  <path
     style="fill:#00794b;fill-rule:evenodd;stroke-width:17"
     inkscape:connector-curvature="0"
     id="path38"
     d="m 1820.495,379.97848 232.73,-242.24999 h -232.73 z m 859.18,-243.77999 -859.52,935.00001 V 718.95848 l 537.71,-582.41999 h 321.81 z m -603.5,1014.39001 603.84,-659.60002 v 320.79 l -317.22,359.38002 -112.37,35.36 -173.74,-55.59 z" />
  <path
     style="fill:#1d1d1b;fill-rule:evenodd;stroke-width:17"
     inkscape:connector-curvature="0"
     id="path40"
     d="m 1808.425,126.50849 h 882.3 v 949.62001 l -441.15,139.91 -441.15,-139.91 z m 13.09,12.41 h 856.29 v 927.86001 l -427.89,136 -428.4,-136 z" />
</svg>
