<svg xmlns="http://www.w3.org/2000/svg" width="316.22776601683796" height="316.22776601683796" viewBox="0 0 1200 1200" version="1.1"><path d="M 532 108 L 532 125 538 125 L 544 125 544 153.500 L 544 182 532 182 L 520 182 520 159 L 520 136 475.500 136 L 431 136 431 158.500 L 431 181 436.500 181 L 442 181 442 210 L 442 239 433.228 239 L 424.456 239 416.228 247.271 L 408 255.542 408 265.271 L 408 275 435.489 275 L 462.978 275 463.239 233.750 L 463.500 192.500 475.750 192.219 L 488 191.938 488 236.969 L 488 282 437 282 L 386 282 386 356 L 386 430 600.500 430 L 815 430 815 385 L 815 340 804 340 L 793 340 793 267 L 793 194 759.035 194 L 725.070 194 724.785 204.250 L 724.500 214.500 713.250 214.783 L 702 215.066 702 194.737 L 702 174.408 677.553 155.204 L 653.107 136 638.003 136 L 622.900 136 623.200 130.250 L 623.500 124.500 629.750 124.202 L 636 123.905 636 107.452 L 636 91 584 91 L 532 91 532 108 M 567 197.500 L 567 271 584 271 L 601 271 601 197.500 L 601 124 584 124 L 567 124 567 197.500 M 455 164 L 455 170 471.500 170 L 488 170 488 164 L 488 158 471.500 158 L 455 158 455 164 M 626 170 L 626 181 648.714 181 C 668.108 181, 671.215 180.797, 669.964 179.615 C 669.159 178.853, 663.609 173.903, 657.630 168.615 L 646.760 159 636.380 159 L 626 159 626 170 M 533 237.500 L 533 271 539 271 L 545 271 545 237.500 L 545 204 539 204 L 533 204 533 237.500 M 729 282 L 729 336.050 745.250 335.775 L 761.500 335.500 761.500 282 L 761.500 228.500 745.250 228.225 L 729 227.950 729 282 M 622.437 281.314 L 612.500 287.629 612.216 298.314 L 611.932 309 656.966 309 L 702 309 702 292 L 702 275 667.187 275 L 632.374 275 622.437 281.314 M 410 350.474 L 410 406 425.508 406 L 441.017 406 440.758 350.750 L 440.500 295.500 425.250 295.224 L 410 294.948 410 350.474 M 476.667 295.667 C 476.300 296.033, 476 321.233, 476 351.667 L 476 407 527 407 L 578 407 578 351 L 578 295 527.667 295 C 499.983 295, 477.033 295.300, 476.667 295.667 M 661 379 L 661 407 693 407 L 725 407 725 379 L 725 351 693 351 L 661 351 661 379 M 347.683 373.768 C 324.049 386.293, 309.549 402.283, 298.050 428.504 C 289.450 448.112, 287.931 460.690, 290.483 491.153 L 292.198 511.631 285.077 521.464 C 261.205 554.423, 249.608 584.064, 244.526 625.111 C 243.687 631.892, 243 637.958, 243 638.590 C 243 639.746, 270.693 644.641, 271.675 643.659 C 271.944 643.389, 272.584 638.329, 273.098 632.413 C 274.409 617.314, 277.340 603.876, 283.059 586.736 C 291.745 560.707, 299.353 547.621, 315.127 531.578 L 324.882 521.656 321.927 500.578 C 317.971 472.357, 317.851 460.392, 321.404 448.500 C 329.515 421.356, 340.686 408.076, 371.782 388.610 C 375.735 386.135, 375.957 385.776, 374.666 383.934 C 372.637 381.037, 359.930 367.997, 359.156 368.018 C 358.795 368.027, 353.632 370.615, 347.683 373.768 M 833.507 376.651 C 825.975 384.881, 825.685 385.369, 827.545 386.694 C 828.620 387.460, 834.312 391.217, 840.194 395.043 C 858.265 406.797, 870.366 420.954, 876.961 438.054 C 884.129 456.643, 884.603 466.368, 879.963 499.766 L 876.965 521.346 886.322 530.923 C 902.052 547.022, 910.648 561.913, 919.358 588.149 C 924.532 603.736, 927.810 619.380, 928.687 632.677 C 929.020 637.725, 929.581 642.322, 929.935 642.894 C 930.369 643.597, 934.780 643.289, 943.539 641.946 C 950.667 640.852, 957.044 639.763, 957.708 639.526 C 959.090 639.033, 958.812 635.311, 955.933 615.799 C 950.630 579.848, 939.204 552.226, 916.896 521.426 L 909.747 511.556 910.422 502.528 C 910.793 497.562, 911.529 487.875, 912.058 481 C 913.804 458.287, 910.331 440.791, 900.078 420.654 C 888.429 397.773, 874.614 383.812, 852.413 372.484 C 847.580 370.018, 843.131 368, 842.525 368 C 841.920 368, 837.862 371.893, 833.507 376.651 M 352 498 L 352 546 600.500 546 L 849 546 849 498 L 849 450 600.500 450 L 352 450 352 498 M 523.871 557.017 C 513.584 558.756, 504.856 564.559, 500.857 572.318 C 496.067 581.614, 497.896 593.627, 505.252 601.186 C 511.497 607.604, 514.539 608.855, 542.715 616.602 C 550.456 618.730, 553.500 621.759, 553.500 627.333 C 553.500 636.977, 542.261 642.733, 528.947 639.907 C 522.164 638.468, 516.562 633.131, 514.760 626.391 L 513.561 621.911 508.031 622.506 C 504.989 622.834, 500.758 623.353, 498.629 623.659 L 494.758 624.217 495.334 628.421 C 496.824 639.292, 504.036 648.896, 514.253 653.615 C 520.197 656.360, 521.178 656.500, 534.500 656.500 C 551.061 656.500, 556.590 654.961, 564.029 648.279 C 577.112 636.529, 576.666 614.425, 563.143 604.434 C 558.704 601.154, 554.448 599.591, 530.637 592.503 C 520.757 589.562, 517 586.729, 517 582.220 C 517 576.646, 523.366 573, 533.097 573 C 542.910 573, 548.932 576.860, 550.540 584.181 L 551.218 587.269 557.859 586.642 C 561.512 586.297, 566.013 586.011, 567.861 586.007 C 571.202 586, 571.218 585.977, 570.525 582.250 C 568.633 572.084, 562.494 563.861, 553.994 560.110 C 545.906 556.542, 533.950 555.314, 523.871 557.017 M 330.663 558.750 C 330.334 559.294, 304.984 624.371, 293.268 654.750 C 292.901 655.701, 295.290 656, 303.259 656 L 313.732 656 315.992 649.750 C 317.235 646.313, 319.128 641.138, 320.198 638.250 L 322.144 633 341.484 633 L 360.825 633 363.537 640.250 C 365.029 644.237, 367.068 649.413, 368.068 651.750 L 369.888 656 379.944 656 C 386.733 656, 390 655.634, 390 654.874 C 390 654.254, 381.352 632.204, 370.783 605.874 L 351.566 558 341.342 558 C 335.719 558, 330.913 558.337, 330.663 558.750 M 401.008 587.750 C 401.018 622.321, 401.961 633.263, 405.575 640.704 C 408.532 646.793, 412.393 650.327, 420 653.910 C 425.154 656.337, 426.443 656.500, 440.500 656.500 C 457.442 656.500, 461.168 655.457, 468.776 648.583 C 477.606 640.606, 478.934 632.617, 478.974 587.250 L 479 558 469.068 558 L 459.136 558 458.818 593.750 C 458.505 628.886, 458.461 629.563, 456.234 633.144 C 453.156 638.094, 448.721 640.004, 440.349 639.984 C 432.155 639.964, 426.715 637.378, 423.556 631.999 C 421.604 628.677, 421.484 626.715, 421.192 593.250 L 420.883 558 410.942 558 L 401 558 401.008 587.750 M 587 566.500 L 587 575 601.500 575 L 616 575 616 615.536 L 616 656.072 625.750 655.786 L 635.500 655.500 635.761 615.250 L 636.023 575 650.011 575 L 664 575 664 566.500 L 664 558 625.500 558 L 587 558 587 566.500 M 679.240 606.750 L 679.500 655.500 689.250 655.786 L 699 656.072 699 635.536 L 699 615 704.532 615 C 715.366 615, 718.026 617.322, 732.943 639.800 C 738.528 648.215, 743.667 655.319, 744.363 655.586 C 745.059 655.853, 750.425 655.943, 756.288 655.786 L 766.948 655.500 757.880 641.026 C 746.917 623.525, 744.157 619.955, 738.385 615.810 L 733.931 612.612 738.286 611.506 C 752.320 607.943, 759.811 597.559, 758.774 583.109 C 758.054 573.079, 753.468 565.732, 745.383 561.657 C 739.883 558.885, 730.077 558.015, 704.240 558.008 L 678.981 558 679.240 606.750 M 777 607.036 L 777 656.072 786.750 655.786 L 796.500 655.500 796.760 606.750 L 797.019 558 787.010 558 L 777 558 777 607.036 M 830.081 604.901 C 820.053 630.731, 811.600 652.812, 811.298 653.969 C 810.762 656.019, 811.008 656.065, 821.014 655.786 L 831.281 655.500 835.391 644.500 L 839.502 633.500 858.993 633.500 L 878.484 633.500 882.654 644.500 L 886.824 655.500 897.490 655.785 C 907.343 656.048, 908.113 655.933, 907.587 654.285 C 907.274 653.303, 898.553 631.350, 888.207 605.500 L 869.396 558.500 858.855 558.218 L 848.314 557.936 830.081 604.901 M 699 587 L 699 599 714.099 599 C 731.319 599, 734.808 598.031, 737.423 592.522 C 739.406 588.342, 739.425 584.723, 737.483 580.967 C 734.802 575.783, 731.794 575, 714.550 575 L 699 575 699 587 M 334.500 598.675 C 331.200 607.840, 328.350 615.712, 328.167 616.169 C 327.983 616.626, 333.721 617, 340.917 617 C 348.113 617, 354.005 616.663, 354.012 616.250 C 354.033 614.906, 341.543 582, 341.014 582.006 C 340.731 582.010, 337.800 589.511, 334.500 598.675 M 852.141 598.521 C 848.764 607.672, 846 615.574, 846 616.080 C 846 616.593, 851.792 617, 859.107 617 C 871.186 617, 872.160 616.863, 871.523 615.250 C 871.143 614.288, 868.325 606.750, 865.261 598.500 C 862.197 590.250, 859.373 583.136, 858.986 582.691 C 858.599 582.246, 855.519 589.370, 852.141 598.521 M 742.654 744.868 C 706.065 784.946, 675.388 818.021, 674.483 818.368 C 669.613 820.237, 659.203 817.116, 657.081 813.151 C 654.106 807.593, 654.628 806.859, 683 776.684 C 697.963 760.771, 710 747.157, 710 746.146 C 710 742.723, 700.308 724.516, 694.116 716.306 C 673.325 688.743, 638.193 673.828, 603.543 677.855 C 557.722 683.182, 522.621 712.771, 512.311 754.763 C 510.077 763.862, 510.076 784.134, 512.309 793.230 C 514.756 803.196, 518.434 810.541, 530.966 830.500 C 545.374 853.443, 545.106 852.934, 543.915 855.158 C 542.540 857.729, 538.160 858.600, 535.139 856.904 C 533.765 856.132, 501.095 814.550, 462.541 764.500 L 392.441 673.500 317.221 673.244 C 275.849 673.103, 242 673.198, 242 673.455 C 242 674.216, 590.044 1111.483, 590.804 1111.678 C 591.475 1111.849, 958.156 674.654, 958.833 672.875 C 959.022 672.380, 926.637 672, 884.173 672 L 809.180 672 742.654 744.868 M 597 701.447 C 567.486 707.790, 547 727.922, 539.920 757.540 C 537.109 769.301, 537.590 787.741, 540.988 798.500 C 544.499 809.612, 550.622 820.385, 557.922 828.291 C 577.251 849.222, 600.518 876.825, 601.683 880.205 C 605.404 891.007, 595.830 903, 583.484 903 C 580.945 903, 577.927 902.496, 576.776 901.880 C 575.625 901.264, 567.073 895.168, 557.772 888.333 L 540.862 875.906 539.023 878.203 C 538.011 879.466, 529.990 889.046, 521.199 899.492 L 505.215 918.483 508.299 922.378 C 516.501 932.733, 533.202 943.344, 550.393 949.122 C 584.010 960.421, 622.363 957.814, 645.162 942.681 C 661.267 931.991, 668.020 918.282, 668.158 896 C 668.242 882.397, 666.496 873.917, 661.624 864.257 C 656.697 854.490, 651.838 848.662, 625.811 821.306 C 612.990 807.830, 601.178 794.526, 599.563 791.741 C 595.438 784.632, 595.429 776.657, 599.537 769.110 C 604.307 760.345, 611.704 756, 621.854 756 C 630.319 756, 635.937 759.380, 645.610 770.294 L 653.404 779.088 669.952 762.538 L 686.500 745.987 683.700 740.631 C 679.799 733.171, 672.533 724.426, 665.476 718.697 C 658.374 712.933, 642.092 704.829, 633 702.535 C 623.971 700.256, 605.183 699.689, 597 701.447" stroke="none" fill="#4c2476" fill-rule="evenodd"/><path d="M 521.500 71.657 C 511.647 76.834, 509 83.289, 509 102.132 L 509 114.901 466.170 115.200 L 423.339 115.500 418.464 118.515 C 414.916 120.710, 412.828 122.987, 410.794 126.880 L 408 132.228 408 157.748 C 408 187.047, 408.428 189.465, 414.730 195.776 L 419 200.053 419 209.447 L 419 218.841 415.795 219.545 C 411.900 220.400, 390.787 240.569, 387.917 246.176 C 386.882 248.198, 385.741 252.349, 385.383 255.401 C 384.698 261.226, 384.726 261.199, 378.108 262.536 C 376.231 262.915, 372.768 265.016, 370.359 267.237 C 363.355 273.693, 363 275.952, 363 314.061 L 363 346.760 357.122 347.185 C 350.102 347.693, 336.185 354.052, 323 362.777 C 293.384 382.374, 270.480 421.433, 267.059 458.176 C 266.138 468.064, 266.933 490.617, 268.572 501.145 C 269.087 504.448, 268.395 505.898, 261.175 516.645 C 239.511 548.891, 228.948 576.043, 222.816 615.253 C 219.892 633.953, 219.598 669.778, 222.286 679.782 C 224.175 686.810, 226.363 689.893, 257.911 730 C 329.761 821.341, 566.704 1118.717, 572.906 1125.335 C 574.883 1127.444, 578.170 1130.031, 580.210 1131.085 C 587.446 1134.820, 598.292 1132.847, 604.046 1126.749 C 605.213 1125.512, 689.493 1025.129, 791.334 903.677 C 901.181 772.676, 977.410 680.951, 978.737 678.177 C 980.513 674.463, 980.977 671.726, 980.987 664.886 C 980.994 660.149, 980.536 653.849, 979.970 650.886 C 979.403 647.924, 978.268 639.425, 977.446 632 C 973.274 594.313, 967.053 571.094, 954.301 545.622 C 948.283 533.602, 940.405 520.495, 933.745 511.424 L 929.395 505.500 930.744 490 C 932.968 464.434, 931.330 447.598, 924.827 429.166 C 917.697 408.960, 906.986 391.732, 892.627 377.375 C 881.606 366.355, 871.731 359.373, 857 352.183 C 849.210 348.381, 846.285 347.477, 840.750 347.160 L 834 346.774 834 340.544 C 834 329.293, 826.736 320.401, 816.613 319.260 L 812 318.740 812 253.527 L 812 188.315 809.673 183.907 C 808.394 181.483, 805.430 178.150, 803.089 176.500 L 798.831 173.500 759.915 173.216 L 721 172.933 720.984 170.716 C 720.941 164.974, 716.626 160.670, 689.479 139.290 C 674.640 127.604, 660.853 117.378, 658.841 116.566 L 655.181 115.089 654.827 99.794 C 654.445 83.283, 653.881 81.179, 648.343 75.589 C 642.698 69.892, 643.956 69.997, 581.782 70.040 C 531.615 70.075, 524.127 70.276, 521.500 71.657 M 532 108 L 532 125 538 125 L 544 125 544 153.500 L 544 182 532 182 L 520 182 520 159 L 520 136 475.500 136 L 431 136 431 158.500 L 431 181 436.500 181 L 442 181 442 210 L 442 239 433.228 239 L 424.456 239 416.228 247.271 L 408 255.542 408 265.271 L 408 275 435.489 275 L 462.978 275 463.239 233.750 L 463.500 192.500 475.750 192.219 L 488 191.938 488 236.969 L 488 282 437 282 L 386 282 386 356 L 386 430 600.500 430 L 815 430 815 385 L 815 340 804 340 L 793 340 793 267 L 793 194 759.035 194 L 725.070 194 724.785 204.250 L 724.500 214.500 713.250 214.783 L 702 215.066 702 194.737 L 702 174.408 677.553 155.204 L 653.107 136 638.003 136 L 622.900 136 623.200 130.250 L 623.500 124.500 629.750 124.202 L 636 123.905 636 107.452 L 636 91 584 91 L 532 91 532 108 M 567 197.500 L 567 271 584 271 L 601 271 601 197.500 L 601 124 584 124 L 567 124 567 197.500 M 455 164 L 455 170 471.500 170 L 488 170 488 164 L 488 158 471.500 158 L 455 158 455 164 M 626 170 L 626 181 648.714 181 C 668.108 181, 671.215 180.797, 669.964 179.615 C 669.159 178.853, 663.609 173.903, 657.630 168.615 L 646.760 159 636.380 159 L 626 159 626 170 M 533 237.500 L 533 271 539 271 L 545 271 545 237.500 L 545 204 539 204 L 533 204 533 237.500 M 729 282 L 729 336.050 745.250 335.775 L 761.500 335.500 761.500 282 L 761.500 228.500 745.250 228.225 L 729 227.950 729 282 M 622.437 281.314 L 612.500 287.629 612.216 298.314 L 611.932 309 656.966 309 L 702 309 702 292 L 702 275 667.187 275 L 632.374 275 622.437 281.314 M 410 350.474 L 410 406 425.508 406 L 441.017 406 440.758 350.750 L 440.500 295.500 425.250 295.224 L 410 294.948 410 350.474 M 476.667 295.667 C 476.300 296.033, 476 321.233, 476 351.667 L 476 407 527 407 L 578 407 578 351 L 578 295 527.667 295 C 499.983 295, 477.033 295.300, 476.667 295.667 M 661 379 L 661 407 693 407 L 725 407 725 379 L 725 351 693 351 L 661 351 661 379 M 347.683 373.768 C 324.049 386.293, 309.549 402.283, 298.050 428.504 C 289.450 448.112, 287.931 460.690, 290.483 491.153 L 292.198 511.631 285.077 521.464 C 261.205 554.423, 249.608 584.064, 244.526 625.111 C 243.687 631.892, 243 637.958, 243 638.590 C 243 639.746, 270.693 644.641, 271.675 643.659 C 271.944 643.389, 272.584 638.329, 273.098 632.413 C 274.409 617.314, 277.340 603.876, 283.059 586.736 C 291.745 560.707, 299.353 547.621, 315.127 531.578 L 324.882 521.656 321.927 500.578 C 317.971 472.357, 317.851 460.392, 321.404 448.500 C 329.515 421.356, 340.686 408.076, 371.782 388.610 C 375.735 386.135, 375.957 385.776, 374.666 383.934 C 372.637 381.037, 359.930 367.997, 359.156 368.018 C 358.795 368.027, 353.632 370.615, 347.683 373.768 M 833.507 376.651 C 825.975 384.881, 825.685 385.369, 827.545 386.694 C 828.620 387.460, 834.312 391.217, 840.194 395.043 C 858.265 406.797, 870.366 420.954, 876.961 438.054 C 884.129 456.643, 884.603 466.368, 879.963 499.766 L 876.965 521.346 886.322 530.923 C 902.052 547.022, 910.648 561.913, 919.358 588.149 C 924.532 603.736, 927.810 619.380, 928.687 632.677 C 929.020 637.725, 929.581 642.322, 929.935 642.894 C 930.369 643.597, 934.780 643.289, 943.539 641.946 C 950.667 640.852, 957.044 639.763, 957.708 639.526 C 959.090 639.033, 958.812 635.311, 955.933 615.799 C 950.630 579.848, 939.204 552.226, 916.896 521.426 L 909.747 511.556 910.422 502.528 C 910.793 497.562, 911.529 487.875, 912.058 481 C 913.804 458.287, 910.331 440.791, 900.078 420.654 C 888.429 397.773, 874.614 383.812, 852.413 372.484 C 847.580 370.018, 843.131 368, 842.525 368 C 841.920 368, 837.862 371.893, 833.507 376.651 M 352 498 L 352 546 600.500 546 L 849 546 849 498 L 849 450 600.500 450 L 352 450 352 498 M 523.871 557.017 C 513.584 558.756, 504.856 564.559, 500.857 572.318 C 496.067 581.614, 497.896 593.627, 505.252 601.186 C 511.497 607.604, 514.539 608.855, 542.715 616.602 C 550.456 618.730, 553.500 621.759, 553.500 627.333 C 553.500 636.977, 542.261 642.733, 528.947 639.907 C 522.164 638.468, 516.562 633.131, 514.760 626.391 L 513.561 621.911 508.031 622.506 C 504.989 622.834, 500.758 623.353, 498.629 623.659 L 494.758 624.217 495.334 628.421 C 496.824 639.292, 504.036 648.896, 514.253 653.615 C 520.197 656.360, 521.178 656.500, 534.500 656.500 C 551.061 656.500, 556.590 654.961, 564.029 648.279 C 577.112 636.529, 576.666 614.425, 563.143 604.434 C 558.704 601.154, 554.448 599.591, 530.637 592.503 C 520.757 589.562, 517 586.729, 517 582.220 C 517 576.646, 523.366 573, 533.097 573 C 542.910 573, 548.932 576.860, 550.540 584.181 L 551.218 587.269 557.859 586.642 C 561.512 586.297, 566.013 586.011, 567.861 586.007 C 571.202 586, 571.218 585.977, 570.525 582.250 C 568.633 572.084, 562.494 563.861, 553.994 560.110 C 545.906 556.542, 533.950 555.314, 523.871 557.017 M 330.663 558.750 C 330.334 559.294, 304.984 624.371, 293.268 654.750 C 292.901 655.701, 295.290 656, 303.259 656 L 313.732 656 315.992 649.750 C 317.235 646.313, 319.128 641.138, 320.198 638.250 L 322.144 633 341.484 633 L 360.825 633 363.537 640.250 C 365.029 644.237, 367.068 649.413, 368.068 651.750 L 369.888 656 379.944 656 C 386.733 656, 390 655.634, 390 654.874 C 390 654.254, 381.352 632.204, 370.783 605.874 L 351.566 558 341.342 558 C 335.719 558, 330.913 558.337, 330.663 558.750 M 401.008 587.750 C 401.018 622.321, 401.961 633.263, 405.575 640.704 C 408.532 646.793, 412.393 650.327, 420 653.910 C 425.154 656.337, 426.443 656.500, 440.500 656.500 C 457.442 656.500, 461.168 655.457, 468.776 648.583 C 477.606 640.606, 478.934 632.617, 478.974 587.250 L 479 558 469.068 558 L 459.136 558 458.818 593.750 C 458.505 628.886, 458.461 629.563, 456.234 633.144 C 453.156 638.094, 448.721 640.004, 440.349 639.984 C 432.155 639.964, 426.715 637.378, 423.556 631.999 C 421.604 628.677, 421.484 626.715, 421.192 593.250 L 420.883 558 410.942 558 L 401 558 401.008 587.750 M 587 566.500 L 587 575 601.500 575 L 616 575 616 615.536 L 616 656.072 625.750 655.786 L 635.500 655.500 635.761 615.250 L 636.023 575 650.011 575 L 664 575 664 566.500 L 664 558 625.500 558 L 587 558 587 566.500 M 679.240 606.750 L 679.500 655.500 689.250 655.786 L 699 656.072 699 635.536 L 699 615 704.532 615 C 715.366 615, 718.026 617.322, 732.943 639.800 C 738.528 648.215, 743.667 655.319, 744.363 655.586 C 745.059 655.853, 750.425 655.943, 756.288 655.786 L 766.948 655.500 757.880 641.026 C 746.917 623.525, 744.157 619.955, 738.385 615.810 L 733.931 612.612 738.286 611.506 C 752.320 607.943, 759.811 597.559, 758.774 583.109 C 758.054 573.079, 753.468 565.732, 745.383 561.657 C 739.883 558.885, 730.077 558.015, 704.240 558.008 L 678.981 558 679.240 606.750 M 777 607.036 L 777 656.072 786.750 655.786 L 796.500 655.500 796.760 606.750 L 797.019 558 787.010 558 L 777 558 777 607.036 M 830.081 604.901 C 820.053 630.731, 811.600 652.812, 811.298 653.969 C 810.762 656.019, 811.008 656.065, 821.014 655.786 L 831.281 655.500 835.391 644.500 L 839.502 633.500 858.993 633.500 L 878.484 633.500 882.654 644.500 L 886.824 655.500 897.490 655.785 C 907.343 656.048, 908.113 655.933, 907.587 654.285 C 907.274 653.303, 898.553 631.350, 888.207 605.500 L 869.396 558.500 858.855 558.218 L 848.314 557.936 830.081 604.901 M 699 587 L 699 599 714.099 599 C 731.319 599, 734.808 598.031, 737.423 592.522 C 739.406 588.342, 739.425 584.723, 737.483 580.967 C 734.802 575.783, 731.794 575, 714.550 575 L 699 575 699 587 M 334.500 598.675 C 331.200 607.840, 328.350 615.712, 328.167 616.169 C 327.983 616.626, 333.721 617, 340.917 617 C 348.113 617, 354.005 616.663, 354.012 616.250 C 354.033 614.906, 341.543 582, 341.014 582.006 C 340.731 582.010, 337.800 589.511, 334.500 598.675 M 852.141 598.521 C 848.764 607.672, 846 615.574, 846 616.080 C 846 616.593, 851.792 617, 859.107 617 C 871.186 617, 872.160 616.863, 871.523 615.250 C 871.143 614.288, 868.325 606.750, 865.261 598.500 C 862.197 590.250, 859.373 583.136, 858.986 582.691 C 858.599 582.246, 855.519 589.370, 852.141 598.521 M 742.654 744.868 C 706.065 784.946, 675.388 818.021, 674.483 818.368 C 669.613 820.237, 659.203 817.116, 657.081 813.151 C 654.106 807.593, 654.628 806.859, 683 776.684 C 697.963 760.771, 710 747.157, 710 746.146 C 710 742.723, 700.308 724.516, 694.116 716.306 C 673.325 688.743, 638.193 673.828, 603.543 677.855 C 557.722 683.182, 522.621 712.771, 512.311 754.763 C 510.077 763.862, 510.076 784.134, 512.309 793.230 C 514.756 803.196, 518.434 810.541, 530.966 830.500 C 545.374 853.443, 545.106 852.934, 543.915 855.158 C 542.540 857.729, 538.160 858.600, 535.139 856.904 C 533.765 856.132, 501.095 814.550, 462.541 764.500 L 392.441 673.500 317.221 673.244 C 275.849 673.103, 242 673.198, 242 673.455 C 242 674.216, 590.044 1111.483, 590.804 1111.678 C 591.475 1111.849, 958.156 674.654, 958.833 672.875 C 959.022 672.380, 926.637 672, 884.173 672 L 809.180 672 742.654 744.868 M 597 701.447 C 567.486 707.790, 547 727.922, 539.920 757.540 C 537.109 769.301, 537.590 787.741, 540.988 798.500 C 544.499 809.612, 550.622 820.385, 557.922 828.291 C 577.251 849.222, 600.518 876.825, 601.683 880.205 C 605.404 891.007, 595.830 903, 583.484 903 C 580.945 903, 577.927 902.496, 576.776 901.880 C 575.625 901.264, 567.073 895.168, 557.772 888.333 L 540.862 875.906 539.023 878.203 C 538.011 879.466, 529.990 889.046, 521.199 899.492 L 505.215 918.483 508.299 922.378 C 516.501 932.733, 533.202 943.344, 550.393 949.122 C 584.010 960.421, 622.363 957.814, 645.162 942.681 C 661.267 931.991, 668.020 918.282, 668.158 896 C 668.242 882.397, 666.496 873.917, 661.624 864.257 C 656.697 854.490, 651.838 848.662, 625.811 821.306 C 612.990 807.830, 601.178 794.526, 599.563 791.741 C 595.438 784.632, 595.429 776.657, 599.537 769.110 C 604.307 760.345, 611.704 756, 621.854 756 C 630.319 756, 635.937 759.380, 645.610 770.294 L 653.404 779.088 669.952 762.538 L 686.500 745.987 683.700 740.631 C 679.799 733.171, 672.533 724.426, 665.476 718.697 C 658.374 712.933, 642.092 704.829, 633 702.535 C 623.971 700.256, 605.183 699.689, 597 701.447" stroke="none" fill="#fafafa" fill-rule="evenodd"/></svg>